<svg width="184" height="22" viewBox="0 0 184 22" fill="none" xmlns="http://www.w3.org/2000/svg">
<g opacity="0.9">
<g clip-path="url(#clip0_42_509)">
<path d="M157.525 6.86512C157.526 6.86714 157.526 6.86911 157.526 6.8711C157.527 6.87753 157.529 6.88387 157.53 6.89012C157.53 6.89212 157.531 6.89408 157.532 6.89604C157.534 6.90338 157.536 6.91056 157.539 6.91751C157.539 6.91814 157.539 6.91881 157.539 6.91941C157.543 6.92732 157.547 6.93499 157.551 6.94239C157.551 6.94278 157.551 6.9432 157.551 6.9436L162.945 16.3744C162.946 16.376 162.947 16.3775 162.948 16.3791C162.95 16.3827 162.952 16.3864 162.955 16.3899C162.957 16.3925 162.959 16.395 162.961 16.3975C162.963 16.4002 162.965 16.4029 162.967 16.4055C162.969 16.4084 162.972 16.411 162.974 16.4137C162.976 16.4158 162.978 16.4179 162.98 16.4199C162.983 16.4226 162.986 16.4252 162.989 16.4277C162.991 16.4295 162.993 16.4314 162.995 16.4331C162.998 16.4354 163.001 16.4376 163.004 16.4397C163.007 16.4415 163.009 16.4433 163.012 16.445C163.015 16.4468 163.017 16.4484 163.02 16.45C163.023 16.4518 163.026 16.4536 163.029 16.4552C163.032 16.4564 163.035 16.4576 163.037 16.4588C163.041 16.4605 163.044 16.462 163.048 16.4635C163.05 16.4644 163.053 16.4652 163.055 16.466C163.059 16.4674 163.063 16.4687 163.066 16.4698C163.069 16.4705 163.072 16.4711 163.074 16.4717C163.078 16.4726 163.082 16.4735 163.086 16.4742C163.089 16.4748 163.092 16.4751 163.095 16.4756C163.098 16.476 163.101 16.4765 163.105 16.4768C163.109 16.4771 163.112 16.4772 163.116 16.4773C163.118 16.4773 163.121 16.4776 163.123 16.4775L164.661 16.4659C164.662 16.4659 164.663 16.4657 164.664 16.4657C164.671 16.4655 164.678 16.465 164.685 16.4641C164.687 16.4639 164.689 16.4637 164.69 16.4634C164.707 16.4609 164.722 16.4565 164.737 16.4502C164.739 16.4494 164.741 16.4487 164.742 16.4479C164.749 16.4451 164.755 16.442 164.76 16.4387C164.762 16.4379 164.763 16.4372 164.764 16.4365C164.778 16.428 164.791 16.4178 164.803 16.4058C164.804 16.4045 164.806 16.4031 164.807 16.4018C164.811 16.3971 164.815 16.3921 164.819 16.3869C164.821 16.3852 164.822 16.3836 164.823 16.3818C164.828 16.3752 164.833 16.3684 164.837 16.3612C164.837 16.361 164.837 16.3609 164.837 16.3608C164.837 16.3607 164.837 16.3607 164.837 16.3606L170.134 6.84918C170.17 6.78468 170.17 6.70555 170.133 6.64156L169.353 5.29004C169.353 5.28959 169.353 5.2892 169.352 5.28878C169.348 5.28135 169.343 5.27413 169.338 5.26725C169.338 5.26722 169.338 5.26722 169.338 5.26722C169.333 5.2607 169.328 5.25457 169.322 5.24868C169.32 5.24744 169.319 5.24626 169.318 5.24505C169.313 5.24034 169.308 5.23585 169.303 5.23156C169.301 5.23053 169.3 5.22944 169.299 5.22848C169.292 5.2235 169.286 5.21879 169.278 5.21456C169.271 5.21039 169.264 5.20689 169.256 5.20372C169.255 5.20348 169.255 5.20315 169.254 5.2029C169.229 5.19234 169.202 5.18732 169.176 5.1875C169.176 5.1875 169.175 5.1876 169.175 5.1876L158.485 5.26849C158.412 5.26903 158.345 5.30913 158.309 5.37362L157.55 6.73671C157.55 6.73722 157.55 6.73776 157.549 6.73828C157.545 6.74567 157.541 6.75331 157.538 6.76125C157.538 6.76159 157.538 6.76198 157.538 6.76234C157.535 6.76956 157.533 6.77702 157.531 6.78459C157.53 6.78665 157.53 6.78867 157.529 6.79072C157.528 6.79685 157.527 6.80304 157.526 6.80935C157.526 6.81153 157.525 6.81367 157.525 6.81581C157.524 6.82354 157.523 6.83136 157.523 6.83931C157.524 6.8397 157.523 6.84009 157.523 6.84048C157.523 6.84054 157.523 6.84063 157.523 6.84073C157.524 6.849 157.524 6.85709 157.525 6.86512ZM169.181 5.81041L169.722 6.74848L164.657 15.8431L160.355 8.38431L161.422 8.37622L164.464 13.6488C164.464 13.6494 164.465 13.65 164.465 13.6507C164.467 13.6545 164.469 13.6581 164.472 13.6617C164.473 13.6638 164.475 13.666 164.476 13.668C164.479 13.6712 164.481 13.6742 164.484 13.6773C164.486 13.6796 164.488 13.6819 164.489 13.6841C164.492 13.6865 164.494 13.6888 164.496 13.6911C164.499 13.6937 164.501 13.6963 164.504 13.6988C164.506 13.7005 164.508 13.7021 164.51 13.7038C164.513 13.7065 164.517 13.7093 164.52 13.7118C164.522 13.7132 164.524 13.7144 164.526 13.7157C164.529 13.7183 164.533 13.7208 164.537 13.7231C164.538 13.7234 164.538 13.7239 164.539 13.7242C164.54 13.7252 164.542 13.7259 164.544 13.7268C164.547 13.7287 164.551 13.7306 164.555 13.7324C164.558 13.7337 164.561 13.7349 164.564 13.7361C164.567 13.7373 164.57 13.7386 164.573 13.7397C164.576 13.741 164.58 13.742 164.584 13.7431C164.586 13.7439 164.589 13.7446 164.591 13.7453C164.595 13.7462 164.599 13.747 164.603 13.7478C164.605 13.7482 164.608 13.7487 164.611 13.7491C164.615 13.7496 164.618 13.7501 164.622 13.7504C164.625 13.7507 164.628 13.7508 164.631 13.751C164.634 13.7511 164.638 13.7512 164.641 13.7511C164.645 13.7511 164.648 13.751 164.651 13.7508C164.654 13.7507 164.657 13.7504 164.661 13.7501C164.664 13.7497 164.667 13.7492 164.671 13.7487C164.674 13.7482 164.677 13.7477 164.679 13.7471C164.683 13.7464 164.687 13.7456 164.69 13.7446C164.693 13.7439 164.696 13.743 164.699 13.7421C164.702 13.741 164.706 13.74 164.709 13.7388C164.712 13.7376 164.715 13.7362 164.719 13.7348C164.721 13.7336 164.724 13.7324 164.727 13.7312C164.731 13.7293 164.735 13.7272 164.738 13.7251C164.74 13.7243 164.741 13.7236 164.743 13.7227C164.743 13.7224 164.744 13.7219 164.744 13.7216C164.748 13.7192 164.752 13.7165 164.756 13.7138C164.758 13.7125 164.76 13.7113 164.761 13.71C164.765 13.7074 164.768 13.7045 164.772 13.7016C164.773 13.7 164.775 13.6984 164.777 13.6968C164.78 13.6942 164.782 13.6915 164.785 13.6888C164.787 13.6865 164.789 13.6842 164.791 13.6819C164.794 13.6796 164.795 13.6772 164.797 13.6748C164.8 13.6718 164.802 13.6687 164.804 13.6655C164.806 13.6635 164.807 13.6613 164.809 13.6592C164.811 13.6555 164.813 13.6519 164.815 13.6481C164.816 13.6474 164.816 13.6468 164.817 13.6462L169.181 5.81041ZM161.893 8.37263L165.769 8.34331L163.857 11.777L161.893 8.37263ZM158.606 5.68278L168.826 5.60545L164.636 13.1284L164.095 12.1904L167.057 6.87246C167.075 6.84076 167.084 6.80479 167.084 6.76838C167.083 6.65367 166.991 6.56143 166.878 6.5623L165.529 6.57251C165.417 6.57336 165.326 6.66696 165.327 6.78167C165.328 6.89634 165.42 6.98859 165.532 6.98774L166.528 6.98019L166.001 7.9263L161.537 7.96008C161.537 7.96008 161.537 7.96005 161.537 7.96005L161.536 7.96008L160.116 7.97083L159.575 7.03279L164.717 6.9939C164.83 6.99305 164.92 6.89942 164.919 6.78475C164.918 6.67007 164.826 6.57782 164.714 6.57867L159.219 6.62025L159.219 6.62022C159.218 6.62022 159.218 6.62025 159.218 6.62025L158.079 6.62885L158.606 5.68278ZM159.104 7.03635L164.305 16.0534L163.238 16.0614L158.08 7.04411L159.104 7.03635Z" fill="url(#paint0_linear_42_509)"/>
<path d="M97.4141 5.35955H99.6637V16.4205H97.4141V5.35955ZM102.527 5.35955H104.762L108.768 9.39331L112.774 5.35955H115.009V16.4205H112.774V8.46623L108.768 12.3372L104.762 8.46623V16.4205H102.527V5.35955ZM118.147 5.35955H123.958C124.804 5.35955 125.538 5.45155 126.158 5.63553C126.779 5.81953 127.294 6.08608 127.703 6.43522C128.112 6.77961 128.415 7.20188 128.613 7.70196C128.815 8.20203 128.916 8.76582 128.916 9.39331C128.916 9.98303 128.817 10.5279 128.62 11.028C128.422 11.5281 128.119 11.9622 127.71 12.3301C127.305 12.6934 126.793 12.9789 126.173 13.1865C125.552 13.3893 124.819 13.4907 123.972 13.4907L120.383 13.4837V16.4205H118.147V5.35955ZM124.015 11.5446C124.438 11.5446 124.807 11.4951 125.122 11.396C125.441 11.2922 125.707 11.1483 125.919 10.9643C126.135 10.7756 126.295 10.5492 126.398 10.285C126.506 10.0161 126.56 9.71883 126.56 9.39331C126.56 8.73752 126.347 8.228 125.919 7.86473C125.496 7.49673 124.861 7.31272 124.015 7.31272H120.383V11.5446H124.015ZM131.363 5.35955H136.969C137.816 5.35955 138.549 5.4492 139.17 5.62846C139.79 5.80301 140.305 6.05779 140.714 6.39277C141.123 6.72771 141.426 7.13581 141.624 7.61705C141.826 8.09825 141.927 8.64317 141.927 9.25176C141.927 9.66222 141.878 10.0538 141.779 10.4265C141.68 10.7945 141.527 11.1342 141.321 11.4455C141.118 11.7569 140.862 12.0353 140.552 12.2806C140.242 12.5212 139.877 12.7217 139.459 12.8821L141.856 16.4205H139.12L137.047 13.2785H136.983L133.598 13.2714V16.4205H131.363V5.35955ZM137.026 11.3323C137.449 11.3323 137.818 11.2828 138.133 11.1837C138.453 11.0846 138.718 10.9455 138.93 10.7662C139.146 10.5869 139.306 10.3699 139.409 10.1151C139.517 9.85564 139.572 9.56786 139.572 9.25176C139.572 8.63372 139.36 8.15722 138.937 7.82225C138.514 7.48256 137.877 7.31272 137.026 7.31272H133.598V11.3323H137.026ZM143.93 10.8582C143.93 10.0231 144.082 9.25883 144.388 8.56533C144.694 7.8718 145.121 7.27736 145.671 6.78197C146.226 6.28189 146.889 5.89502 147.66 5.6214C148.436 5.34775 149.294 5.21094 150.234 5.21094C151.17 5.21094 152.026 5.34775 152.801 5.6214C153.577 5.89502 154.24 6.28189 154.79 6.78197C155.345 7.27736 155.775 7.8718 156.08 8.56533C156.386 9.25883 156.539 10.0231 156.539 10.8582C156.539 11.698 156.386 12.4693 156.08 13.1723C155.775 13.8705 155.345 14.4721 154.79 14.9769C154.24 15.4817 153.577 15.8756 152.801 16.1587C152.026 16.437 151.17 16.5762 150.234 16.5762C149.294 16.5762 148.436 16.437 147.66 16.1587C146.889 15.8756 146.226 15.4817 145.671 14.9769C145.121 14.4721 144.694 13.8705 144.388 13.1723C144.082 12.4693 143.93 11.698 143.93 10.8582ZM146.165 10.8582C146.165 11.4291 146.266 11.9433 146.469 12.4009C146.675 12.8585 146.96 13.2501 147.322 13.5757C147.689 13.8965 148.119 14.1441 148.612 14.3187C149.111 14.4933 149.651 14.5805 150.234 14.5805C150.817 14.5805 151.356 14.4933 151.849 14.3187C152.348 14.1441 152.778 13.8965 153.14 13.5757C153.502 13.2501 153.786 12.8585 153.993 12.4009C154.2 11.9433 154.303 11.4291 154.303 10.8582C154.303 10.2873 154.2 9.77545 153.993 9.32254C153.786 8.86962 153.502 8.48749 153.14 8.17609C152.778 7.85999 152.348 7.6194 151.849 7.45427C151.356 7.28914 150.817 7.20659 150.234 7.20659C149.651 7.20659 149.111 7.28914 148.612 7.45427C148.119 7.6194 147.689 7.85999 147.322 8.17609C146.96 8.48749 146.675 8.86962 146.469 9.32254C146.266 9.77545 146.165 10.2873 146.165 10.8582Z" fill="url(#paint1_linear_42_509)"/>
<path d="M171.926 13.1306C172.326 13.357 172.73 13.5622 173.139 13.7462C173.553 13.9255 173.981 14.0789 174.423 14.2063C174.865 14.3289 175.328 14.4233 175.812 14.4893C176.301 14.5554 176.82 14.5884 177.37 14.5884C178.033 14.5884 178.598 14.5459 179.063 14.461C179.528 14.3714 179.907 14.2511 180.198 14.1001C180.495 13.9444 180.709 13.7604 180.84 13.5481C180.976 13.3358 181.045 13.1046 181.045 12.8546C181.045 12.4536 180.878 12.1375 180.544 11.9063C180.21 11.6704 179.695 11.5525 179 11.5525C178.694 11.5525 178.372 11.5737 178.033 11.6161C177.695 11.6539 177.352 11.6964 177.004 11.7435C176.66 11.7907 176.32 11.8355 175.981 11.878C175.647 11.9157 175.332 11.9346 175.036 11.9346C174.542 11.9346 174.068 11.8709 173.612 11.7435C173.16 11.6161 172.758 11.4251 172.406 11.1703C172.058 10.9155 171.781 10.5971 171.574 10.2149C171.367 9.83281 171.263 9.38696 171.263 8.87744C171.263 8.57549 171.303 8.27591 171.383 7.97871C171.468 7.68148 171.599 7.39841 171.778 7.1295C171.961 6.85585 172.196 6.60345 172.483 6.37229C172.77 6.13638 173.116 5.93351 173.52 5.76366C173.929 5.59382 174.399 5.46172 174.93 5.36737C175.466 5.2683 176.075 5.21875 176.757 5.21875C177.25 5.21875 177.747 5.24707 178.245 5.30369C178.743 5.35559 179.228 5.43108 179.698 5.53014C180.172 5.62921 180.629 5.7495 181.066 5.89105C181.503 6.02786 181.91 6.18119 182.286 6.35103L181.306 8.16268C180.995 8.02587 180.661 7.90084 180.304 7.78761C179.947 7.66967 179.573 7.56825 179.183 7.48331C178.793 7.39841 178.388 7.33234 177.97 7.28518C177.556 7.23327 177.133 7.20734 176.7 7.20734C176.084 7.20734 175.577 7.25215 175.177 7.34179C174.782 7.43144 174.467 7.54702 174.232 7.68854C173.997 7.82535 173.833 7.98106 173.739 8.15561C173.649 8.32546 173.605 8.4953 173.605 8.66514C173.605 8.99537 173.753 9.26667 174.049 9.47896C174.345 9.68655 174.796 9.79036 175.403 9.79036C175.647 9.79036 175.927 9.77384 176.242 9.74081C176.562 9.70306 176.896 9.66297 177.244 9.62051C177.596 9.57803 177.953 9.54029 178.315 9.50729C178.682 9.46954 179.037 9.45067 179.38 9.45067C180.029 9.45067 180.603 9.52377 181.101 9.67003C181.604 9.81629 182.025 10.0262 182.363 10.2999C182.702 10.5688 182.958 10.8967 183.132 11.2835C183.306 11.6657 183.393 12.095 183.393 12.5715C183.393 13.2084 183.245 13.7769 182.949 14.277C182.657 14.7724 182.239 15.1923 181.693 15.5367C181.153 15.8764 180.499 16.1358 179.733 16.3151C178.966 16.4897 178.113 16.5769 177.173 16.5769C176.552 16.5769 175.946 16.5368 175.354 16.4567C174.761 16.3812 174.192 16.2726 173.647 16.1311C173.106 15.9849 172.589 15.8127 172.096 15.6145C171.607 15.4116 171.153 15.1899 170.734 14.9493L171.926 13.1306Z" fill="url(#paint2_linear_42_509)"/>
</g>
<path d="M0.544136 11.3833C0.544136 10.3304 0.779247 9.39 1.24947 8.562C1.72991 7.72377 2.37903 7.07466 3.1968 6.61466C4.0248 6.14444 4.94992 5.90933 5.97214 5.90933C7.16814 5.90933 8.21592 6.216 9.11547 6.82933C10.015 7.44266 10.6437 8.29111 11.0015 9.37466H8.53281C8.28747 8.86355 7.93992 8.48022 7.49014 8.22466C7.05058 7.96911 6.53947 7.84133 5.95681 7.84133C5.33325 7.84133 4.77614 7.98955 4.28547 8.286C3.80503 8.57222 3.4268 8.98111 3.1508 9.51266C2.88503 10.0442 2.75214 10.6678 2.75214 11.3833C2.75214 12.0887 2.88503 12.7122 3.1508 13.254C3.4268 13.7856 3.80503 14.1996 4.28547 14.496C4.77614 14.7822 5.33325 14.9253 5.95681 14.9253C6.53947 14.9253 7.05058 14.7976 7.49014 14.542C7.93992 14.2762 8.28747 13.8878 8.53281 13.3767H11.0015C10.6437 14.4704 10.015 15.324 9.11547 15.9373C8.22614 16.5404 7.17836 16.842 5.97214 16.842C4.94992 16.842 4.0248 16.612 3.1968 16.152C2.37903 15.6818 1.72991 15.0327 1.24947 14.2047C0.779247 13.3767 0.544136 12.4362 0.544136 11.3833ZM18.355 16.75L15.9937 12.5793H14.9817V16.75H12.835V6.04733H16.8523C17.6803 6.04733 18.3857 6.19555 18.9683 6.492C19.551 6.77822 19.9855 7.17177 20.2717 7.67266C20.5681 8.16333 20.7163 8.71533 20.7163 9.32866C20.7163 10.034 20.5119 10.6729 20.103 11.2453C19.6941 11.8076 19.0859 12.196 18.2783 12.4107L20.839 16.75H18.355ZM14.9817 10.9693H16.7757C17.3583 10.9693 17.7928 10.8313 18.079 10.5553C18.3652 10.2691 18.5083 9.87555 18.5083 9.37466C18.5083 8.884 18.3652 8.50577 18.079 8.24C17.7928 7.964 17.3583 7.826 16.7757 7.826H14.9817V10.9693ZM24.8046 7.78V10.4633H28.4079V12.1653H24.8046V15.002H28.8679V16.75H22.6579V6.03199H28.8679V7.78H24.8046ZM37.3814 14.7107H33.1187L32.4134 16.75H30.1594L34.0081 6.03199H36.5074L40.3561 16.75H38.0867L37.3814 14.7107ZM36.7987 12.9933L35.2501 8.516L33.7014 12.9933H36.7987ZM49.078 6.04733V7.78H46.226V16.75H44.0793V7.78H41.2273V6.04733H49.078ZM52.7909 7.78V10.4633H56.3943V12.1653H52.7909V15.002H56.8543V16.75H50.6443V6.03199H56.8543V7.78H52.7909ZM62.5464 6.04733C63.6709 6.04733 64.6573 6.26711 65.5057 6.70666C66.3644 7.14622 67.0237 7.77488 67.4837 8.59266C67.954 9.40022 68.1891 10.3407 68.1891 11.414C68.1891 12.4873 67.954 13.4278 67.4837 14.2353C67.0237 15.0327 66.3644 15.6511 65.5057 16.0907C64.6573 16.5302 63.6709 16.75 62.5464 16.75H58.8051V6.04733H62.5464ZM62.4697 14.9253C63.5942 14.9253 64.4631 14.6187 65.0764 14.0053C65.6897 13.392 65.9964 12.5282 65.9964 11.414C65.9964 10.2998 65.6897 9.43089 65.0764 8.80733C64.4631 8.17355 63.5942 7.85666 62.4697 7.85666H60.9517V14.9253H62.4697ZM79.5216 11.2607C80.1247 11.3731 80.6205 11.6747 81.0089 12.1653C81.3974 12.656 81.5916 13.2182 81.5916 13.852C81.5916 14.4244 81.4485 14.9304 81.1623 15.37C80.8863 15.7993 80.4825 16.1367 79.9509 16.382C79.4194 16.6273 78.7907 16.75 78.0649 16.75H73.4496V6.04733H77.8656C78.5914 6.04733 79.2149 6.16488 79.7363 6.4C80.2678 6.63511 80.6665 6.96222 80.9323 7.38133C81.2083 7.80044 81.3463 8.27577 81.3463 8.80733C81.3463 9.43089 81.1776 9.95222 80.8403 10.3713C80.5132 10.7904 80.0736 11.0869 79.5216 11.2607ZM75.5963 10.4633H77.5589C78.0701 10.4633 78.4636 10.3509 78.7396 10.126C79.0156 9.89089 79.1536 9.55866 79.1536 9.12933C79.1536 8.7 79.0156 8.36777 78.7396 8.13266C78.4636 7.89755 78.0701 7.78 77.5589 7.78H75.5963V10.4633ZM77.7583 15.002C78.2796 15.002 78.6834 14.8793 78.9696 14.634C79.2661 14.3887 79.4143 14.0411 79.4143 13.5913C79.4143 13.1313 79.2609 12.7736 78.9543 12.518C78.6476 12.2522 78.2336 12.1193 77.7123 12.1193H75.5963V15.002H77.7583ZM91.8125 6.04733L88.1938 13.024V16.75H86.0472V13.024L82.4132 6.04733H84.8358L87.1358 10.9387L89.4205 6.04733H91.8125Z" fill="#6C665B"/>
</g>
<defs>
<linearGradient id="paint0_linear_42_509" x1="163.842" y1="5.1875" x2="163.842" y2="33.4126" gradientUnits="userSpaceOnUse">
<stop stop-color="#E4BC6D"/>
<stop offset="1" stop-color="#E4BC6D" stop-opacity="0.22"/>
</linearGradient>
<linearGradient id="paint1_linear_42_509" x1="126.977" y1="5.21094" x2="126.977" y2="33.6241" gradientUnits="userSpaceOnUse">
<stop stop-color="#E4BC6D"/>
<stop offset="1" stop-color="#E4BC6D" stop-opacity="0.22"/>
</linearGradient>
<linearGradient id="paint2_linear_42_509" x1="177.064" y1="5.21875" x2="177.064" y2="33.6142" gradientUnits="userSpaceOnUse">
<stop stop-color="#E4BC6D"/>
<stop offset="1" stop-color="#E4BC6D" stop-opacity="0.22"/>
</linearGradient>
<clipPath id="clip0_42_509">
<rect width="87.8718" height="11.8361" fill="white" transform="translate(96.1289 4.89062)"/>
</clipPath>
</defs>
</svg>
