<svg width="180" height="37" viewBox="0 0 180 37" fill="none" xmlns="http://www.w3.org/2000/svg">
<path d="M7.3211 26L0.171857 1.42449H5.25882L8.45535 13.6263L9.52086 18.9882H9.58961C10.0021 16.9489 10.3801 15.2074 10.7239 13.7638L13.4048 1.42449H18.2168L20.8978 13.7294L22.032 18.9882H22.1008C22.582 16.8114 22.983 15.0126 23.3038 13.5919L26.3972 1.42449H31.3123L24.3005 26H19.6604L16.6701 12.8358L15.8108 8.47061H15.7421C15.49 10.1892 15.2265 11.6442 14.9515 12.8358L11.9269 26H7.3211ZM37.3278 1.42449V10.6704H37.4309C38.0954 9.70798 38.8172 9.0091 39.5963 8.57373C40.3983 8.11544 41.3836 7.8863 42.5523 7.8863C44.3625 7.8863 45.829 8.50498 46.9518 9.74235C48.0746 10.9568 48.636 12.5379 48.636 14.4856V26H43.9615V15.173C43.9615 14.2106 43.6865 13.4315 43.1366 12.8358C42.6095 12.24 41.8648 11.9421 40.9024 11.9421C39.8713 11.9421 39.012 12.3202 38.3246 13.0764C37.6601 13.8325 37.3278 14.8064 37.3278 15.9979V26H32.6533V1.42449H37.3278ZM62.2755 26C62.0464 25.7021 61.8631 25.0491 61.7256 24.0408H61.6568C61.1527 24.797 60.5111 25.3813 59.732 25.7938C58.9529 26.2062 57.8645 26.4125 56.4668 26.4125C54.6107 26.4125 53.1213 25.9427 51.9985 25.0032C50.8757 24.0637 50.3143 22.7347 50.3143 21.0162C50.3143 19.2288 50.933 17.9227 52.1703 17.0978C53.4077 16.25 55.1492 15.6657 57.3948 15.3449C59.0446 15.1157 60.1674 14.8866 60.7632 14.6575C61.3589 14.4054 61.6568 13.97 61.6568 13.3513C61.6568 12.7097 61.4048 12.2056 60.9007 11.839C60.3965 11.4495 59.6633 11.2547 58.7009 11.2547C56.5699 11.2547 55.4356 12.0796 55.2981 13.7294H51.1392C51.2079 12.0567 51.8839 10.6704 53.1671 9.5705C54.4503 8.47061 56.3064 7.92067 58.7353 7.92067C63.6847 7.92067 66.1595 10.0861 66.1595 14.4169V23.3878C66.1595 24.7168 66.3657 25.5303 66.7782 25.8281V26H62.2755ZM57.601 23.1472C58.8842 23.1472 59.8924 22.8149 60.6257 22.1504C61.3819 21.4859 61.7599 20.6954 61.7599 19.7788V17.1322C61.2558 17.4301 60.1674 17.7738 58.4947 18.1633C57.1656 18.4612 56.2262 18.8049 55.6762 19.1945C55.1263 19.5611 54.8513 20.134 54.8513 20.913C54.8513 22.4025 55.7679 23.1472 57.601 23.1472ZM67.4207 11.4609V8.3675H69.8611V2.86808H74.4325V8.3675H77.4572V11.4609H74.4325V20.8099C74.4325 21.9786 75.0168 22.5629 76.1854 22.5629L77.5603 22.5285V25.9656C76.8499 26.0115 75.8761 26.0344 74.6387 26.0344C73.2868 26.0344 72.1525 25.7136 71.236 25.072C70.3194 24.4075 69.8611 23.319 69.8611 21.8067V11.4609H67.4207Z" fill="#FDFDFD"/>
<path d="M81.3008 26.0755V1.5H88.3125L91.784 13.8393C92.0361 14.7559 92.2882 15.7756 92.5402 16.8984C92.8152 17.9982 93.0214 18.869 93.1589 19.5106L93.3308 20.473H93.3995C93.8349 18.1128 94.339 15.9016 94.9118 13.8393L98.3833 1.5H105.498V26.0755H100.858V11.9833L101.064 6.8963H100.996C100.629 8.8211 100.274 10.3793 99.93 11.5708L95.7024 26.0755H90.9248L86.8002 11.5708L85.7347 6.8963H85.6659C85.8034 8.95858 85.8722 10.6542 85.8722 11.9833V26.0755H81.3008Z" fill="#FDFDFD"/>
<path d="M132.537 8.44301V10.849H132.64C133.855 8.92421 135.596 7.96181 137.865 7.96181C139.675 7.96181 141.141 8.5805 142.264 9.81787C143.387 11.0323 143.948 12.6134 143.948 14.5611V26.0755H139.274V15.2485C139.274 14.2861 138.999 13.5071 138.449 12.9113C137.922 12.3155 137.177 12.0176 136.215 12.0176C135.184 12.0176 134.324 12.3957 133.637 13.1519C132.973 13.9081 132.64 14.8819 132.64 16.0734V26.0755H127.966V8.44301H132.537Z" fill="#FDFDFD"/>
<path d="M154.77 26.5911C151.928 26.5911 149.694 25.7203 148.067 23.9789C146.44 22.2145 145.627 19.9689 145.627 17.2421C145.627 14.6069 146.44 12.4072 148.067 10.6428C149.694 8.85547 151.779 7.96181 154.323 7.96181C157.095 7.96181 159.238 8.92421 160.75 10.849C162.262 12.7738 163.019 15.3517 163.019 18.5826H150.233C150.416 19.9803 150.886 21.0688 151.642 21.8478C152.398 22.604 153.429 22.9821 154.735 22.9821C156.454 22.9821 157.588 22.2603 158.138 20.8167H162.744C162.4 22.4665 161.529 23.8414 160.131 24.9413C158.734 26.0411 156.946 26.5911 154.77 26.5911ZM154.391 11.5708C152.123 11.5708 150.76 12.8311 150.301 15.3517H158.138C158.069 14.2289 157.691 13.3237 157.004 12.6363C156.316 11.926 155.446 11.5708 154.391 11.5708Z" fill="#FDFDFD"/>
<path d="M164.713 31.8499V28.1722H166.363C168.104 28.1722 168.975 27.3702 168.975 25.7662C168.975 24.9871 168.528 23.3945 167.635 20.9886L162.891 8.44301H167.806L170.419 16.3828L171.553 20.2324H171.622C171.942 18.743 172.286 17.4598 172.653 16.3828L175.128 8.44301H179.836L173.684 26.5223C172.997 28.5388 172.217 29.9251 171.347 30.6813C170.499 31.4604 169.204 31.8499 167.463 31.8499H164.713Z" fill="#FDFDFD"/>
<path fill-rule="evenodd" clip-rule="evenodd" d="M107.997 15.7924C108.308 13.9279 109.119 12.323 110.429 10.9778C112.148 9.19053 114.359 8.29688 117.063 8.29688C119.767 8.29688 121.978 9.19053 123.697 10.9778C125.415 12.7422 126.275 14.9535 126.275 17.6115C126.275 19.6515 125.768 21.435 124.756 22.9621C125.422 27.5278 129.74 31.6777 131.914 33.2404C129.149 32.9714 123.986 30.7871 119.705 28.7365C119.705 28.7179 119.705 28.6993 119.705 28.6807C119.705 26.7169 118.113 25.125 116.149 25.125C115.096 25.125 114.149 25.5834 113.498 26.3117C112.343 25.8712 111.32 25.1938 110.429 24.2796C108.711 22.4922 107.852 20.2696 107.852 17.6115C107.852 17.5303 107.852 17.4496 107.854 17.3693C107.852 17.3091 107.852 17.2488 107.852 17.1883C107.852 16.7117 107.902 16.2451 107.997 15.7924ZM114.493 24.2277C114.493 22.9098 114.621 21.9671 114.877 21.3997C115.152 20.8322 115.655 20.2465 116.387 19.6424C116.607 19.4411 117 19.1482 117.568 18.7638C118.135 18.3794 118.538 18.0225 118.776 17.693C119.032 17.3635 119.16 16.9425 119.16 16.43C119.16 15.8076 118.941 15.3134 118.501 14.9473C118.062 14.5629 117.504 14.3707 116.826 14.3707C115.984 14.3707 115.307 14.627 114.795 15.1395C114.3 15.6337 114.053 16.3202 114.053 17.1988H109.633C109.669 15.2219 110.347 13.6385 111.665 12.4488C112.983 11.259 114.767 10.6641 117.019 10.6641C119.069 10.6641 120.716 11.1857 121.961 12.2291C123.224 13.2542 123.855 14.5995 123.855 16.2653C123.855 17.0707 123.709 17.7845 123.416 18.4069C123.123 19.0292 122.821 19.4868 122.51 19.7797C122.199 20.0726 121.787 20.3838 121.274 20.7133C121.11 20.8231 120.899 20.9604 120.643 21.1251C120.387 21.2715 120.195 21.3905 120.066 21.482L119.655 21.7566C119.49 21.8664 119.353 21.9671 119.243 22.0586C119.151 22.1502 119.06 22.2508 118.968 22.3607C118.62 22.8 118.446 23.4223 118.446 24.2277H114.493Z" fill="url(#paint0_linear_42_8)"/>
<defs>
<linearGradient id="paint0_linear_42_8" x1="119.883" y1="8.29687" x2="119.883" y2="70.6556" gradientUnits="userSpaceOnUse">
<stop stop-color="#E4BC6D"/>
<stop offset="1" stop-color="#E4BC6D" stop-opacity="0.22"/>
</linearGradient>
</defs>
</svg>
