<svg width="707" height="374" viewBox="0 0 707 374" fill="none" xmlns="http://www.w3.org/2000/svg">
<g opacity="0.36">
<circle cx="187" cy="187" r="185" stroke="#E7A82F" stroke-opacity="0.2" stroke-width="2"/>
<circle cx="519.629" cy="187" r="185" stroke="#E7A82F" stroke-opacity="0.2" stroke-width="2"/>
<path d="M291.429 340.565C291.535 340.023 291.181 339.498 290.638 339.393L281.804 337.675C281.262 337.57 280.737 337.924 280.631 338.466C280.526 339.008 280.88 339.533 281.422 339.638L289.275 341.165L287.749 349.018C287.643 349.56 287.997 350.085 288.539 350.19C289.082 350.296 289.607 349.942 289.712 349.4L291.429 340.565ZM289.888 339.545C252.88 364.507 208.059 375.165 163.776 369.531L163.524 371.515C208.288 377.21 253.596 366.437 291.007 341.203L289.888 339.545ZM163.776 369.531C119.493 363.898 78.7686 342.358 49.1893 308.924L47.6914 310.249C77.5922 344.046 118.76 365.82 163.524 371.515L163.776 369.531ZM49.1893 308.924C19.61 275.491 3.19368 232.445 2.99888 187.805L0.998906 187.814C1.19581 232.938 17.7906 276.453 47.6914 310.249L49.1893 308.924ZM2.99888 187.805C2.80408 143.166 18.8441 99.9776 48.1305 66.2875L46.6211 64.9754C17.0163 99.0317 0.801979 142.689 0.998906 187.814L2.99888 187.805ZM48.1305 66.2875C77.4168 32.5974 117.952 10.7028 162.184 4.6831L161.915 2.70137C117.202 8.78652 76.2257 30.919 46.6211 64.9754L48.1305 66.2875ZM162.184 4.6831C206.416 -1.33662 251.329 8.92903 288.553 33.5674L289.657 31.8997C252.028 6.99345 206.628 -3.38378 161.915 2.70137L162.184 4.6831ZM288.553 33.5674C325.778 58.2058 352.776 95.5366 364.518 138.605L366.447 138.079C354.578 94.5424 327.286 56.8059 289.657 31.8997L288.553 33.5674ZM364.518 138.605C376.259 181.673 371.944 227.54 352.375 267.663L354.172 268.539C373.954 227.981 378.317 181.615 366.447 138.079L364.518 138.605Z" fill="#E7A82F"/>
<path d="M415.2 33.435C415.094 33.9772 415.448 34.5021 415.991 34.6075L424.825 36.3248C425.367 36.4301 425.892 36.0761 425.998 35.5339C426.103 34.9918 425.749 34.4669 425.207 34.3615L417.354 32.835L418.88 24.982C418.986 24.4399 418.632 23.915 418.089 23.8096C417.547 23.7042 417.022 24.0582 416.917 24.6004L415.2 33.435ZM416.741 34.4549C453.749 9.4926 498.57 -1.16459 542.852 4.46894L543.105 2.48494C498.341 -3.20982 453.033 7.56319 415.622 32.7968L416.741 34.4549ZM542.852 4.46894C587.135 10.1025 627.86 31.6425 657.44 65.0758L658.938 63.7505C629.037 29.9538 587.869 8.17968 543.105 2.48494L542.852 4.46894ZM657.44 65.0758C687.019 98.5091 703.435 141.555 703.63 186.195L705.63 186.186C705.433 141.062 688.838 97.5472 658.938 63.7505L657.44 65.0758ZM703.63 186.195C703.825 230.834 687.785 274.022 658.498 307.713L660.008 309.025C689.613 274.968 705.827 231.311 705.63 186.186L703.63 186.195ZM658.498 307.713C629.212 341.403 588.677 363.297 544.445 369.317L544.714 371.299C589.427 365.213 630.403 343.081 660.008 309.025L658.498 307.713ZM544.445 369.317C500.212 375.337 455.3 365.071 418.076 340.433L416.972 342.1C454.601 367.007 500.001 377.384 544.714 371.299L544.445 369.317ZM418.076 340.433C380.851 315.794 353.853 278.463 342.111 235.395L340.182 235.921C352.051 279.458 379.343 317.194 416.972 342.1L418.076 340.433ZM342.111 235.395C330.37 192.327 334.685 146.46 354.254 106.337L352.456 105.461C332.675 146.019 328.312 192.385 340.182 235.921L342.111 235.395Z" fill="#E7A82F"/>
</g>
</svg>
