<svg width="72" height="72" viewBox="0 0 72 72" fill="none" xmlns="http://www.w3.org/2000/svg">
<path d="M66 45C66 56.61 56.61 66 45 66L48.15 60.75" stroke="url(#paint0_linear_101_19)" stroke-width="1.5" stroke-linecap="round" stroke-linejoin="round"/>
<path d="M6 27C6 15.39 15.39 6 27 6L23.85 11.25" stroke="url(#paint1_linear_101_19)" stroke-width="1.5" stroke-linecap="round" stroke-linejoin="round"/>
<path d="M66 12.6V12.93C66 13.77 65.34 14.43 64.5 14.43H37.5C36.66 14.43 36 13.77 36 12.93V12.6C36 7.32 37.32 6 42.66 6H59.34C64.68 6 66 7.32 66 12.6Z" fill="url(#paint2_linear_101_19)"/>
<path d="M37.5 17.4299C36.66 17.4299 36 18.0899 36 18.9299V21.9299V24.8999C36 30.1799 37.32 31.4999 42.66 31.4999H59.34C64.68 31.4999 66 30.1799 66 24.8999V21.9299V18.9299C66 18.0899 65.34 17.4299 64.5 17.4299H37.5Z" fill="url(#paint3_linear_101_19)"/>
<path d="M36 47.1V47.43C36 48.27 35.34 48.93 34.5 48.93H7.5C6.66 48.93 6 48.27 6 47.43V47.1C6 41.82 7.32 40.5 12.66 40.5H29.34C34.68 40.5 36 41.82 36 47.1Z" fill="url(#paint4_linear_101_19)"/>
<path d="M7.5 51.9299C6.66 51.9299 6 52.5899 6 53.4299V56.4299V59.3999C6 64.6799 7.32 65.9999 12.66 65.9999H29.34C34.68 65.9999 36 64.6799 36 59.3999V56.4299V53.4299C36 52.5899 35.34 51.9299 34.5 51.9299H7.5V51.9299Z" fill="url(#paint5_linear_101_19)"/>
<defs>
<linearGradient id="paint0_linear_101_19" x1="55.5" y1="45" x2="55.5" y2="97.5" gradientUnits="userSpaceOnUse">
<stop stop-color="#E4BC6D"/>
<stop offset="1" stop-color="#E4BC6D" stop-opacity="0.22"/>
</linearGradient>
<linearGradient id="paint1_linear_101_19" x1="16.5" y1="6" x2="16.5" y2="58.5" gradientUnits="userSpaceOnUse">
<stop stop-color="#E4BC6D"/>
<stop offset="1" stop-color="#E4BC6D" stop-opacity="0.22"/>
</linearGradient>
<linearGradient id="paint2_linear_101_19" x1="51" y1="6" x2="51" y2="27.075" gradientUnits="userSpaceOnUse">
<stop stop-color="#E4BC6D"/>
<stop offset="1" stop-color="#E4BC6D" stop-opacity="0.22"/>
</linearGradient>
<linearGradient id="paint3_linear_101_19" x1="51" y1="17.4299" x2="51" y2="52.6049" gradientUnits="userSpaceOnUse">
<stop stop-color="#E4BC6D"/>
<stop offset="1" stop-color="#E4BC6D" stop-opacity="0.22"/>
</linearGradient>
<linearGradient id="paint4_linear_101_19" x1="21" y1="40.5" x2="21" y2="61.575" gradientUnits="userSpaceOnUse">
<stop stop-color="#E4BC6D"/>
<stop offset="1" stop-color="#E4BC6D" stop-opacity="0.22"/>
</linearGradient>
<linearGradient id="paint5_linear_101_19" x1="21" y1="51.9299" x2="21" y2="87.1049" gradientUnits="userSpaceOnUse">
<stop stop-color="#E4BC6D"/>
<stop offset="1" stop-color="#E4BC6D" stop-opacity="0.22"/>
</linearGradient>
</defs>
</svg>
