<svg width="72" height="72" viewBox="0 0 72 72" fill="none" xmlns="http://www.w3.org/2000/svg">
<path d="M47.34 6H24.66C13.32 6 10.5 9.03 10.5 21.12V54.9C10.5 62.88 14.88 64.77 20.19 59.07L20.22 59.04C22.68 56.43 26.43 56.64 28.56 59.49L31.59 63.54C34.02 66.75 37.95 66.75 40.38 63.54L43.41 59.49C45.57 56.61 49.32 56.4 51.78 59.04C57.12 64.74 61.47 62.85 61.47 54.87V21.12C61.5 9.03 58.68 6 47.34 6ZM27 21C28.65 21 30 22.35 30 24C30 25.65 28.68 27 27 27C25.32 27 24 25.65 24 24C24 22.35 25.32 21 27 21ZM45 42C43.32 42 42 40.65 42 39C42 37.35 43.35 36 45 36C46.65 36 48 37.35 48 39C48 40.65 46.68 42 45 42ZM47.7 22.77L27.51 42.96C27.06 43.41 26.49 43.62 25.92 43.62C25.35 43.62 24.78 43.41 24.33 42.96C23.46 42.09 23.46 40.65 24.33 39.78L44.52 19.59C45.39 18.72 46.83 18.72 47.7 19.59C48.57 20.46 48.57 21.9 47.7 22.77Z" fill="url(#paint0_linear_101_29)"/>
<defs>
<linearGradient id="paint0_linear_101_29" x1="35.9851" y1="6" x2="35.9851" y2="155.869" gradientUnits="userSpaceOnUse">
<stop stop-color="#E4BC6D"/>
<stop offset="1" stop-color="#E4BC6D" stop-opacity="0.22"/>
</linearGradient>
</defs>
</svg>
