<svg width="72" height="72" viewBox="0 0 72 72" fill="none" xmlns="http://www.w3.org/2000/svg">
<path d="M35.82 6.62998L28.59 23.46H21.36C20.16 23.46 18.99 23.55 17.85 23.79L20.85 16.59L20.97 16.32L21.15 15.84C21.24 15.63 21.3 15.45 21.39 15.3C24.87 7.22998 28.77 4.70998 35.82 6.62998Z" fill="url(#paint0_linear_101_2)"/>
<path d="M56.19 24.2701L56.13 24.2401C54.33 23.7301 52.5 23.4601 50.64 23.4601H31.86L38.61 7.77006L38.7 7.56006C39.12 7.71006 39.57 7.92006 40.02 8.07006L46.65 10.8601C50.34 12.3901 52.92 13.9801 54.51 15.9001C54.78 16.2601 55.02 16.5901 55.26 16.9801C55.53 17.4001 55.74 17.8201 55.86 18.2701C55.98 18.5401 56.07 18.7801 56.13 19.0501C56.58 20.5801 56.61 22.3201 56.19 24.2701Z" fill="url(#paint1_linear_101_2)"/>
<path d="M37.56 52.98H38.31C39.21 52.98 39.96 52.17 39.96 51.18C39.96 49.92 39.6 49.74 38.82 49.44L37.56 48.99V52.98Z" fill="url(#paint2_linear_101_2)"/>
<path d="M54.87 28.56C53.52 28.17 52.11 27.96 50.64 27.96H21.36C19.32 27.96 17.4 28.35 15.6 29.13C10.38 31.38 6.72 36.57 6.72 42.6V48.45C6.72 49.17 6.78 49.86 6.87 50.58C7.53 60.12 12.63 65.22 22.17 65.85C22.86 65.94 23.55 66 24.3 66H47.7C58.8 66 64.65 60.72 65.22 50.22C65.25 49.65 65.28 49.05 65.28 48.45V42.6C65.28 35.97 60.87 30.39 54.87 28.56ZM39.84 46.5C41.22 46.98 43.08 48 43.08 51.18C43.08 53.91 40.95 56.1 38.31 56.1H37.56V56.76C37.56 57.63 36.87 58.32 36 58.32C35.13 58.32 34.44 57.63 34.44 56.76V56.1H34.17C31.29 56.1 28.92 53.67 28.92 50.67C28.92 49.8 29.61 49.11 30.48 49.11C31.35 49.11 32.04 49.8 32.04 50.67C32.04 51.93 33 52.98 34.17 52.98H34.44V47.91L32.16 47.1C30.78 46.62 28.92 45.6 28.92 42.42C28.92 39.69 31.05 37.5 33.69 37.5H34.44V36.84C34.44 35.97 35.13 35.28 36 35.28C36.87 35.28 37.56 35.97 37.56 36.84V37.5H37.83C40.71 37.5 43.08 39.93 43.08 42.93C43.08 43.8 42.39 44.49 41.52 44.49C40.65 44.49 39.96 43.8 39.96 42.93C39.96 41.67 39 40.62 37.83 40.62H37.56V45.69L39.84 46.5Z" fill="url(#paint3_linear_101_2)"/>
<path d="M32.04 42.4201C32.04 43.6801 32.4 43.8601 33.18 44.1601L34.44 44.6101V40.6201H33.69C32.76 40.6201 32.04 41.4301 32.04 42.4201Z" fill="url(#paint4_linear_101_2)"/>
<defs>
<linearGradient id="paint0_linear_101_2" x1="26.835" y1="6.01807" x2="26.835" y2="50.4478" gradientUnits="userSpaceOnUse">
<stop stop-color="#E4BC6D"/>
<stop offset="1" stop-color="#E4BC6D" stop-opacity="0.22"/>
</linearGradient>
<linearGradient id="paint1_linear_101_2" x1="44.1736" y1="7.56006" x2="44.1736" y2="49.3351" gradientUnits="userSpaceOnUse">
<stop stop-color="#E4BC6D"/>
<stop offset="1" stop-color="#E4BC6D" stop-opacity="0.22"/>
</linearGradient>
<linearGradient id="paint2_linear_101_2" x1="38.76" y1="48.99" x2="38.76" y2="58.965" gradientUnits="userSpaceOnUse">
<stop stop-color="#E4BC6D"/>
<stop offset="1" stop-color="#E4BC6D" stop-opacity="0.22"/>
</linearGradient>
<linearGradient id="paint3_linear_101_2" x1="36" y1="27.96" x2="36" y2="123.06" gradientUnits="userSpaceOnUse">
<stop stop-color="#E4BC6D"/>
<stop offset="1" stop-color="#E4BC6D" stop-opacity="0.22"/>
</linearGradient>
<linearGradient id="paint4_linear_101_2" x1="33.24" y1="40.6201" x2="33.24" y2="50.5951" gradientUnits="userSpaceOnUse">
<stop stop-color="#E4BC6D"/>
<stop offset="1" stop-color="#E4BC6D" stop-opacity="0.22"/>
</linearGradient>
</defs>
</svg>
