<svg width="32" height="32" viewBox="0 0 32 32" fill="none" xmlns="http://www.w3.org/2000/svg">
<path d="M4 11.3333C4 9.82222 4.51111 8.55556 5.53333 7.53333C6.55556 6.51111 7.82222 6 9.33333 6C10.9333 6 12.2222 6.62222 13.2 7.86667C14.1778 9.06667 14.6667 10.8889 14.6667 13.3333C14.6667 17.1111 13.7778 20 12 22C10.2222 24 7.77778 25 4.66667 25V21C6.13333 21 7.26667 20.6222 8.06667 19.8667C8.91111 19.0667 9.33333 18 9.33333 16.6667V16L9.06667 16.2C8.71111 16.2889 8.35556 16.3333 8 16.3333C6.93333 16.3333 6 15.8667 5.2 14.9333C4.4 14 4 12.8 4 11.3333ZM17 11.3333C17 9.82222 17.5111 8.55556 18.5333 7.53333C19.5556 6.51111 20.8222 6 22.3333 6C23.9333 6 25.2222 6.62222 26.2 7.86667C27.1778 9.06667 27.6667 10.8889 27.6667 13.3333C27.6667 17.1111 26.7778 20 25 22C23.2222 24 20.7778 25 17.6667 25V21C19.1333 21 20.2667 20.6222 21.0667 19.8667C21.9111 19.0667 22.3333 18 22.3333 16.6667V16L22.0667 16.2C21.7111 16.2889 21.3556 16.3333 21 16.3333C19.9333 16.3333 19 15.8667 18.2 14.9333C17.4 14 17 12.8 17 11.3333Z" fill="url(#paint0_linear_42_21)"/>
<defs>
<linearGradient id="paint0_linear_42_21" x1="15.8333" y1="-39.0847" x2="17.1117" y2="24.9745" gradientUnits="userSpaceOnUse">
<stop stop-color="#E4BC6D" stop-opacity="0"/>
<stop offset="1" stop-color="#E4BC6D"/>
</linearGradient>
</defs>
</svg>
